HIERARCHY
ROOT SpineBase
{
  OFFSET 0.000000 0.000000 0.000000
  CHANNELS 6 Xposition Yposition Zposition Zrotation Xrotation Yrotation
  JOINT SpineMid
  {
    OFFSET 0.000000 29.733410 0.000000
    CHANNELS 3 Zrotation Xrotation Yrotation
    JOINT SpineShoulder
    {
      OFFSET 0.103033 22.112389 -0.724098
      CHANNELS 3 Zrotation Xrotation Yrotation
      JOINT Neck
      {
        OFFSET 0.056420 7.339625 -0.565579
        CHANNELS 3 Zrotation Xrotation Yrotation
        JOINT Head
        {
          OFFSET -3.442974 13.315035 -0.150472
          CHANNELS 3 Zrotation Xrotation Yrotation
          End Site
          {
            OFFSET 0 0 0
          }
        }
      }
      JOINT ShoulderLeft
      {
        OFFSET -16.058265 -3.968135 4.871170
        CHANNELS 3 Zrotation Xrotation Yrotation
        JOINT ElbowLeft
        {
          OFFSET -2.597187 -29.146192 3.655887
          CHANNELS 3 Zrotation Xrotation Yrotation
          JOINT WristLeft
          {
            OFFSET 0.452059 -21.982766 -5.279403
            CHANNELS 3 Zrotation Xrotation Yrotation
            JOINT HandLeft
            {
              OFFSET 0.430727 -2.035063 -0.843806
              CHANNELS 3 Zrotation Xrotation Yrotation
              JOINT HandTipLeft
              {
                OFFSET 2.981761 -7.591470 -2.280924
                CHANNELS 3 Zrotation Xrotation Yrotation
                End Site
                {
                  OFFSET 0 0 0
                }
              }
              JOINT ThumbLeft
              {
                OFFSET -1.691801 -1.223603 -0.938526
                CHANNELS 3 Zrotation Xrotation Yrotation
                End Site
                {
                  OFFSET 0 0 0
                }
              }
            }
          }
        }
      }
      JOINT ShoulderRight
      {
        OFFSET 14.486356 -2.476348 -7.041693
        CHANNELS 3 Zrotation Xrotation Yrotation
        JOINT ElbowRight
        {
          OFFSET 7.883514 -25.921054 1.340476
          CHANNELS 3 Zrotation Xrotation Yrotation
          JOINT WristRight
          {
            OFFSET 0.357709 -22.182815 -4.142675
            CHANNELS 3 Zrotation Xrotation Yrotation
            JOINT HandRight
            {
              OFFSET -3.213384 -6.011635 0.289900
              CHANNELS 3 Zrotation Xrotation Yrotation
              JOINT HandTipRight
              {
                OFFSET -1.111077 -4.505863 -0.369556
                CHANNELS 3 Zrotation Xrotation Yrotation
                End Site
                {
                  OFFSET 0 0 0
                }
              }
              JOINT ThumbRight
              {
                OFFSET 2.414519 -1.569946 0.024704
                CHANNELS 3 Zrotation Xrotation Yrotation
                End Site
                {
                  OFFSET 0 0 0
                }
              }
            }
          }
        }
      }
    }
  }
  JOINT HipLeft
  {
    OFFSET -6.493766 0.289995 -0.986109
    CHANNELS 3 Zrotation Xrotation Yrotation
    JOINT KneeLeft
    {
      OFFSET 3.054162 -27.957245 4.354790
      CHANNELS 3 Zrotation Xrotation Yrotation
      JOINT AnkleLeft
      {
        OFFSET 3.682475 -33.176621 4.323556
        CHANNELS 3 Zrotation Xrotation Yrotation
        JOINT FootLeft
        {
          OFFSET -1.355883 -4.442425 -10.585671
          CHANNELS 3 Zrotation Xrotation Yrotation
          End Site
          {
            OFFSET 0 0 0
          }
        }
      }
    }
  }
  JOINT HipRight
  {
    OFFSET 7.158319 1.673442 -5.742723
    CHANNELS 3 Zrotation Xrotation Yrotation
    JOINT KneeRight
    {
      OFFSET 5.829260 -25.353411 1.023216
      CHANNELS 3 Zrotation Xrotation Yrotation
      JOINT AnkleRight
      {
        OFFSET 1.663107 -36.671176 6.409736
        CHANNELS 3 Zrotation Xrotation Yrotation
        JOINT FootRight
        {
          OFFSET -1.257846 -7.694774 -5.366458
          CHANNELS 3 Zrotation Xrotation Yrotation
          End Site
          {
            OFFSET 0 0 0
          }
        }
      }
    }
  }
}
MOTION
Frames: 13
Frame Time: 0.033333
-33.527330 68.045918 344.052320 -0.000000 0.000000 19.209186 -0.000000 0.000000 -19.209186 -0.000000 0.000000 0.000000 -0.000000 0.000000 0.000000 0.000000 0.000000 0.000000 -0.000000 0.000000 0.000000 -0.000000 0.000000 0.000000 -0.000000 0.000000 0.000000 -0.000000 0.000000 0.000000 0.000000 0.000000 0.000000 0.000000 0.000000 0.000000 -0.000000 0.000000 0.000000 -0.000000 0.000000 0.000000 -0.000000 0.000000 0.000000 -0.000000 0.000000 0.000000 0.000000 0.000000 0.000000 0.000000 0.000000 0.000000 -0.000000 0.000000 -19.209186 -0.000000 0.000000 0.000000 -0.000000 0.000000 0.000000 0.000000 0.000000 0.000000 -0.000000 0.000000 -19.209186 -0.000000 0.000000 0.000000 -0.000000 0.000000 0.000000 0.000000 0.000000 0.000000
-33.563587 67.980003 344.052994 0.015799 -0.144455 19.105059 0.032351 0.141669 -19.105079 -0.000000 0.000000 0.000000 -0.000000 0.000000 0.000000 0.000000 0.000000 0.000000 0.865413 1.370367 -0.023967 0.373399 0.730494 -0.242983 0.907823 -4.528670 -1.047684 -2.881863 3.354545 2.074287 0.000000 0.000000 0.000000 0.000000 0.000000 0.000000 -1.302079 -0.031988 -0.077698 -0.761961 0.006873 0.462922 1.415489 -0.438284 -0.177590 -0.740993 2.417896 -0.546042 0.000000 0.000000 0.000000 0.000000 0.000000 0.000000 0.032351 0.141669 -19.105079 -0.000000 0.000000 0.000000 2.693320 -6.891029 -4.884295 0.000000 0.000000 0.000000 0.032351 0.141669 -19.105079 -0.000000 0.000000 0.000000 -0.665899 -0.538581 0.550603 0.000000 0.000000 0.000000
-33.602644 67.924713 344.042101 0.024843 -0.264500 18.985584 0.062559 0.258193 -18.985667 -0.000000 0.000000 0.000000 0.692924 -0.584346 -0.139510 0.000000 0.000000 0.000000 1.445114 2.252497 -0.048053 0.626535 1.231083 -0.412982 1.576897 -8.406614 -1.815908 -5.071186 6.466481 3.883749 0.000000 0.000000 0.000000 0.000000 0.000000 0.000000 -2.127301 -0.099388 -0.142896 -1.271599 0.025902 0.777140 2.327855 -0.572580 -0.363082 -0.986782 3.590884 -0.766786 0.000000 0.000000 0.000000 0.000000 0.000000 0.000000 0.062559 0.258193 -18.985667 -0.000000 0.000000 0.000000 4.586703 -13.045866 -8.944966 0.000000 0.000000 0.000000 0.062559 0.258193 -18.985667 -0.000000 0.000000 0.000000 -1.376830 -1.114380 1.134479 0.000000 0.000000 0.000000
-33.644502 67.880050 344.019642 0.027130 -0.360118 18.850289 0.090678 0.349569 -18.850480 -0.000000 0.000000 0.000000 0.962277 -0.794333 -0.187433 0.000000 0.000000 0.000000 1.735294 2.641741 -0.058026 0.768771 1.530433 -0.508599 1.813554 -11.473552 -2.336594 -6.366634 9.290688 5.274685 0.000000 0.000000 0.000000 0.000000 0.000000 0.000000 -2.481802 -0.203537 -0.195948 -1.536189 0.068937 0.945910 2.746107 -0.398780 -0.554566 -0.728309 3.480338 -0.705529 0.000000 0.000000 0.000000 0.000000 0.000000 0.000000 0.090678 0.349569 -18.850480 -0.000000 0.000000 0.000000 5.717411 -17.627667 -11.862225 0.000000 0.000000 0.000000 0.090678 0.349569 -18.850480 -0.000000 0.000000 0.000000 -2.133175 -1.729723 1.751425 0.000000 0.000000 0.000000
-33.689160 67.846012 343.985617 0.022664 -0.431301 18.698762 0.116806 0.415801 -18.699100 -0.000000 0.000000 0.000000 1.182128 -0.950830 -0.222087 0.000000 0.000000 0.000000 1.733904 2.535905 -0.047078 0.805904 1.644840 -0.529092 1.512817 -13.571478 -2.648191 -6.626908 11.758429 6.102986 0.000000 0.000000 0.000000 0.000000 0.000000 0.000000 -2.366691 -0.345909 -0.236203 -1.562604 0.142306 0.970212 2.682402 0.098036 -0.759140 0.018591 2.097473 -0.351140 0.000000 0.000000 0.000000 0.000000 0.000000 0.000000 0.116806 0.415801 -18.699100 -0.000000 0.000000 0.000000 6.243446 -20.147879 -13.451923 0.000000 0.000000 0.000000 0.116806 0.415801 -18.699100 -0.000000 0.000000 0.000000 -2.935203 -2.386996 2.401077 0.000000 0.000000 0.000000
-33.736619 67.822600 343.940025 0.011448 -0.478050 18.530644 0.141078 0.456903 -18.531159 -0.000000 0.000000 0.000000 1.353491 -1.054475 -0.244148 0.000000 0.000000 0.000000 1.440468 1.933882 -0.016016 0.738580 1.575811 -0.473382 0.692652 -14.569374 -2.767512 -5.810524 13.786261 6.274219 0.000000 0.000000 0.000000 0.000000 0.000000 0.000000 -1.777319 -0.528109 -0.261902 -1.355149 0.247157 0.847806 2.150477 0.945447 -0.993602 0.995567 -0.685285 0.422109 0.000000 0.000000 0.000000 0.000000 0.000000 0.000000 0.141078 0.456903 -18.531159 -0.000000 0.000000 0.000000 6.298235 -20.415957 -13.632100 0.000000 0.000000 0.000000 0.141078 0.456903 -18.531159 0.762623 0.268372 0.143701 -4.555243 -3.344738 2.918080 0.000000 0.000000 0.000000
-33.806939 67.802053 343.916984 -0.040206 -0.512137 18.431208 0.200069 0.473153 -18.432214 -0.000000 0.000000 0.000000 1.477261 -1.165414 -0.268713 0.000000 0.000000 0.000000 2.005267 2.116558 0.025981 0.826863 1.050115 -0.684129 1.295192 -14.814602 -3.064351 -6.172214 16.195136 7.247368 0.000000 0.000000 0.000000 0.000000 0.000000 0.000000 -2.045593 -1.063986 -0.450626 -1.058659 0.412207 1.022449 1.048858 1.901361 -1.312107 2.578472 -5.540484 1.853947 0.000000 0.000000 0.000000 0.000000 0.000000 0.000000 0.200069 0.473153 -18.432214 -0.000000 0.000000 0.000000 4.038157 -11.114968 -7.686209 0.000000 0.000000 0.000000 0.200069 0.473153 -18.432214 1.125257 0.249946 0.205557 -6.484332 -4.705676 4.100602 0.000000 0.000000 0.000000
-33.866646 67.799852 343.844021 -0.084272 -0.499127 18.188821 0.235869 0.447880 -18.190110 -0.000000 0.000000 0.000000 1.580315 -1.166976 -0.266827 0.000000 0.000000 0.000000 0.906511 0.190380 0.095325 1.221455 1.346598 -0.596954 -1.621662 -15.190573 -2.690796 -0.552556 19.032220 5.001366 0.000000 0.000000 0.000000 0.000000 0.000000 0.000000 -0.481335 -1.536291 -0.498902 -0.610976 0.917170 0.702109 -2.128002 3.060487 -1.536251 5.636350 -7.005055 2.688875 0.000000 0.000000 0.000000 0.000000 0.000000 0.000000 0.235869 0.447880 -18.190110 -0.000000 0.000000 0.000000 3.715090 -10.333472 -6.907248 0.000000 0.000000 0.000000 0.235869 0.447880 -18.190110 1.427204 0.173030 0.255088 -7.947311 -5.445565 4.939839 0.000000 0.000000 0.000000
-33.927558 67.812390 343.737156 -0.117839 -0.460649 17.835227 0.253268 0.402417 -17.836590 -0.000000 0.000000 0.000000 1.599823 -1.050912 -0.238112 0.000000 0.000000 0.000000 -1.277297 -3.279047 0.095054 0.496238 0.968879 0.001873 -2.735583 -10.780430 -1.842080 3.370250 15.941722 2.016949 0.000000 0.000000 0.000000 0.000000 0.000000 0.000000 2.930888 -1.691658 -0.316942 0.213397 0.952482 -0.269824 -3.267863 6.294659 -2.370534 5.943158 -11.125091 4.865964 0.000000 0.000000 0.000000 0.000000 0.000000 0.000000 0.829708 -0.376596 -17.775891 -0.786774 0.565812 -0.056944 5.658863 -17.066632 -11.750033 0.000000 0.000000 0.000000 0.253268 0.402417 -17.836590 1.725939 0.129358 0.305468 -9.375651 -5.829859 5.693515 0.000000 0.000000 0.000000
-33.970158 67.846302 343.580618 -0.109506 -0.416432 17.513433 0.229750 0.364174 -17.514561 -0.000000 0.000000 0.000000 1.535208 -0.817107 -0.182345 0.000000 0.000000 0.000000 -3.803046 -7.748425 -0.042843 -1.676973 -0.678755 1.028421 -6.581866 -6.289001 0.603734 6.011555 9.592950 -2.273951 0.000000 0.000000 0.000000 0.000000 0.000000 0.000000 7.857115 -1.947214 -0.050480 1.944676 0.559076 -1.755505 -0.980893 11.024080 -3.987030 5.194657 -17.042398 8.430989 0.000000 0.000000 0.000000 0.000000 0.000000 0.000000 0.772857 -0.755766 -17.478420 -0.854490 0.905056 -0.027536 4.943989 -13.693871 -9.957071 0.000000 0.000000 0.000000 0.229750 0.364174 -17.514561 1.805688 -0.081989 0.312952 -9.395299 -5.451755 5.661491 0.000000 0.000000 0.000000
-33.980297 67.904313 343.384034 -0.055382 -0.333315 17.229550 0.151626 0.301953 -17.230110 -0.000000 0.000000 0.000000 1.290973 -0.440423 -0.094054 0.000000 0.000000 0.000000 -8.959701 -13.384017 -0.960584 -3.719925 -3.410426 2.769262 -7.725624 -5.225501 1.504393 6.327962 9.008412 -4.891350 0.000000 0.000000 0.000000 0.000000 0.000000 0.000000 14.659722 -0.736480 0.608984 4.251337 -1.061139 -3.964743 2.912141 13.796822 -5.304780 3.398883 -22.480768 12.419273 0.000000 0.000000 0.000000 0.000000 0.000000 0.000000 0.554985 -1.221552 -17.242450 -0.837008 1.335398 0.025332 4.932477 -13.792239 -9.899616 0.000000 0.000000 0.000000 0.151626 0.301953 -17.230110 1.689965 -0.365926 0.283862 -8.016675 -4.141131 4.756891 0.000000 0.000000 0.000000
-33.997937 67.954165 343.179825 0.027368 -0.270969 17.010287 0.053100 0.267121 -17.010346 -0.000000 0.000000 0.000000 1.000857 0.085569 0.032616 0.000000 0.000000 0.000000 -16.274385 -20.076971 -3.041010 -5.796320 -5.464943 5.213315 -10.035577 -5.918430 3.124572 5.245449 10.806508 -5.980975 0.000000 0.000000 0.000000 0.000000 0.000000 0.000000 22.345237 1.683595 1.274324 7.385230 -2.384819 -6.575526 6.089601 12.196614 -3.927284 1.681962 -25.416491 15.503557 0.000000 0.000000 0.000000 0.000000 0.000000 0.000000 0.343961 -1.652882 -17.067116 -0.841863 1.749993 0.073146 2.222510 -5.569293 -3.969495 0.000000 0.000000 0.000000 0.053100 0.267121 -17.010346 1.403296 -0.712675 0.221336 -5.662043 -2.264153 3.236197 0.000000 0.000000 0.000000
-33.990061 68.018063 342.975056 0.204476 -0.310973 17.043848 -0.104351 0.357247 -17.042968 -0.000000 0.000000 0.000000 0.630589 0.974627 0.253449 0.000000 0.000000 0.000000 -26.460902 -26.714414 -6.988213 -6.906358 -8.225826 7.911078 -8.425776 -2.979819 4.862922 -1.607858 9.190200 -4.730329 0.000000 0.000000 0.000000 0.000000 0.000000 0.000000 29.885186 5.558557 1.658216 12.048449 -4.637268 -9.012478 8.597029 9.664967 -0.676617 2.759327 -25.595734 18.529174 0.000000 0.000000 0.000000 0.000000 0.000000 0.000000 0.048993 -1.850811 -17.142699 -0.797740 2.064682 0.116105 0.501702 -2.032453 -0.592009 0.000000 0.000000 0.000000 -0.104351 0.357247 -17.042968 1.048271 -0.977527 0.147560 -2.996354 -0.313033 1.460255 0.000000 0.000000 0.000000
